<?xml version="1.0" standalone="no"?>
<!DOCTYPE svg PUBLIC "-//W3C//DTD SVG 20010904//EN"
 "http://www.w3.org/TR/2001/REC-SVG-20010904/DTD/svg10.dtd">
<svg version="1.0" xmlns="http://www.w3.org/2000/svg"
 width="260.000000pt" height="260.000000pt" viewBox="0 0 260.000000 260.000000"
 preserveAspectRatio="xMidYMid meet">
<metadata>
Created by potrace 1.11, written by Peter Selinger 2001-2013
</metadata>
<g transform="translate(0.000000,260.000000) scale(0.100000,-0.100000)"
fill="#000000" stroke="none">
<path d="M1072 2362 c-40 -37 -50 -88 -27 -136 30 -62 49 -66 315 -66 230 0
238 1 271 23 68 46 75 119 17 176 l-32 31 -257 0 -257 0 -30 -28z"/>
<path d="M1220 2065 c-243 -49 -434 -218 -494 -438 -10 -34 -22 -76 -27 -93
-5 -17 -9 -72 -9 -123 0 -70 4 -98 17 -119 28 -43 44 -51 104 -52 48 0 59 4
84 30 26 28 28 36 35 147 8 130 26 189 79 267 86 124 208 166 492 166 115 0
117 0 148 29 26 25 31 36 31 78 0 58 -19 90 -66 109 -43 18 -303 17 -394 -1z"/>
<path d="M725 1116 l-35 -33 0 -117 c0 -64 4 -124 9 -134 5 -9 18 -49 30 -87
23 -78 100 -202 159 -257 61 -57 142 -107 227 -140 76 -29 89 -31 251 -36 221
-6 278 1 316 38 40 41 40 106 -1 152 l-29 33 -209 6 c-114 4 -217 10 -228 14
-191 74 -285 212 -285 418 0 128 -34 177 -122 177 -42 0 -54 -5 -83 -34z"/>
</g>
</svg>
